<svg xmlns="http://www.w3.org/2000/svg" width="102" height="67" fill="none"><path fill="#fff" d="M71.837 66.857V39.99h19.156v5.877h-11.94v4.618h10.953v5.877H79.053v4.618H90.94v5.877H71.837ZM37.79 39.99h8.98l6.177 15.218h.312l6.178-15.218h8.98v26.867h-7.06V51.325h-.207l-5.918 15.322h-4.257L45.057 51.22h-.208v15.637h-7.06V39.99ZM34.37 39.99v26.867h-7.216V39.99h7.215ZM1.337 45.867V39.99h23.101v5.877h-7.994v20.99H9.332v-20.99H1.337Z"/><path fill="#64099B" d="M47.62 34.874V12.758h9.444c1.624 0 3.045.324 4.263.972a7.01 7.01 0 0 1 2.841 2.732c.677 1.174 1.015 2.545 1.015 4.115 0 1.583-.349 2.955-1.047 4.114-.69 1.159-1.662 2.052-2.916 2.678-1.246.626-2.703.94-4.37.94h-5.64v-4.666h4.444c.698 0 1.293-.122 1.784-.367.499-.252.88-.608 1.143-1.069.271-.46.406-1.004.406-1.63 0-.634-.135-1.174-.406-1.62a2.556 2.556 0 0 0-1.143-1.037c-.491-.245-1.086-.367-1.784-.367H53.56v17.32h-5.94ZM38.13 12.758h5.94v14.168c0 1.685-.4 3.143-1.197 4.373-.79 1.224-1.894 2.171-3.312 2.84-1.417.663-3.062.994-4.935.994-1.887 0-3.54-.331-4.957-.994-1.417-.669-2.521-1.616-3.312-2.84-.783-1.23-1.175-2.688-1.175-4.373V12.758h5.94v13.65c0 .684.15 1.296.449 1.835.299.533.712.95 1.239 1.253.534.303 1.14.454 1.816.454.684 0 1.289-.151 1.816-.454.527-.302.94-.72 1.24-1.252.298-.54.448-1.152.448-1.836v-13.65ZM22.487 21.052h-6.025a4.165 4.165 0 0 0-.342-1.372 3.095 3.095 0 0 0-.748-1.058 3.114 3.114 0 0 0-1.143-.691 4.392 4.392 0 0 0-1.527-.248c-.997 0-1.841.244-2.532.734-.684.49-1.204 1.191-1.56 2.106-.349.914-.523 2.012-.523 3.293 0 1.354.178 2.487.534 3.402.363.907.887 1.59 1.57 2.051.684.454 1.507.68 2.468.68.548 0 1.04-.068 1.474-.205.435-.143.812-.349 1.133-.615.32-.266.58-.587.78-.961.206-.382.345-.81.416-1.285l6.025.043c-.07.936-.33 1.89-.78 2.862-.448.964-1.086 1.857-1.912 2.678-.819.813-1.834 1.468-3.044 1.965-1.211.497-2.618.745-4.22.745-2.008 0-3.81-.435-5.406-1.306-1.588-.871-2.845-2.153-3.77-3.845-.92-1.691-1.379-3.761-1.379-6.209 0-2.462.47-4.535 1.41-6.22.94-1.692 2.208-2.97 3.803-3.833 1.596-.871 3.376-1.307 5.342-1.307 1.381 0 2.653.19 3.814.572 1.16.382 2.179.94 3.055 1.674a8.253 8.253 0 0 1 2.115 2.689c.534 1.065.858 2.286.972 3.66Z"/><g clip-path="url(#a)"><path fill="#64099B" d="M96.933 22.267v-5.284h-6.27v-4.298H69.767V31.85c0 2.331 1.874 4.227 4.18 4.227h12.538c2.305 0 4.18-1.896 4.18-4.227v-2.221c3.535-.518 6.269-3.645 6.269-7.362Zm-2.09 0c0 2.552-1.798 4.757-4.18 5.248v-8.418h4.18v3.17ZM74.931 1.571 73.533 0c-2.929 2.668-1.353 4.715-.412 5.937.918 1.194 1.262 1.64.085 2.83l1.478 1.495c2.481-2.51.981-4.46.085-5.624-.96-1.249-1.32-1.716.162-3.067Zm5.224 0L78.757 0c-2.928 2.668-1.353 4.715-.412 5.937.918 1.194 1.262 1.64.086 2.83l1.477 1.495c2.482-2.51.982-4.46.086-5.624-.961-1.249-1.321-1.716.161-3.067Zm5.225 0L83.982 0c-2.929 2.668-1.353 4.715-.412 5.937.918 1.194 1.262 1.64.085 2.83l1.478 1.495c2.482-2.51.982-4.46.086-5.624-.962-1.249-1.322-1.716.16-3.067Z"/></g><defs><clipPath id="a"><path fill="#fff" d="M65.515 0h35.669v36.077h-35.67z"/></clipPath></defs></svg>